# xmcd
#
# Track frame offsets:
#	150
#	18724
#	31128
#	52811
#	69712
#	105146
#	123385
#	144421
#	162754
#	180530
#	198159
#	219043
#
# Disc length: 3097 seconds
#
# Revision: 0
# Processed by: cddbd v1.5.2PL0 Copyright (c) Steve Scherf et al.
# Submitted via: audiograbber 1.83.01
#
DISCID=930c170c
DTITLE=VÁRADI ROMA CAFE - Isten hozott a családban
DYEAR=1900
DGENRE=
TTITLE0=Lehetsz bárki
TTITLE1=Jött egy csávó, kis cigánygyerek
TTITLE2=Pedig olyan szép volt
TTITLE3=Lehozom én, hogyha kell
TTITLE4=Unbala-umba
TTITLE5=Szivem kulcsát
TTITLE6=Jöjj hát, gyere siess
TTITLE7=Esik esõ, mit sem bánom én
TTITLE8=Itt voltál
TTITLE9=Szükségem van Rád
TTITLE10=Szent énrk
TTITLE11=Szülinapodra
EXTD=
EXTT0=
EXTT1=
EXTT2=
EXTT3=
EXTT4=
EXTT5=
EXTT6=
EXTT7=
EXTT8=
EXTT9=
EXTT10=
EXTT11=
PLAYORDER=
